<?xml version="1.0" standalone="no"?><!DOCTYPE svg PUBLIC "-//W3C//DTD SVG 1.1//EN" "http://www.w3.org/Graphics/SVG/1.1/DTD/svg11.dtd"><svg t="1573202036154" class="icon" viewBox="0 0 1024 1024" version="1.1" xmlns="http://www.w3.org/2000/svg" p-id="2611" xmlns:xlink="http://www.w3.org/1999/xlink" width="48" height="48"><defs><style type="text/css"></style></defs><path d="M895.715265 660.960637 895.715265 469.293339l63.889099 0L959.604364 341.515141l-63.889099 0 0-63.889099-63.889099 0 0-63.889099-63.889099 0 0-63.889099-63.889099 0L704.047967 85.957721 576.268746 85.957721l0 63.889099-63.889099 0 0 63.889099-63.889099 0 0 63.889099-63.889099 0L384.601448 85.957721 65.155952 85.957721l0 447.223694L256.82325 533.181415l0 63.889099L65.155952 597.070514l0 127.778198L256.82325 724.848713l0 63.889099L65.155952 788.737812 65.155952 916.517033l894.448412 0L959.604364 788.738835 831.826166 788.738835 831.826166 660.960637 895.715265 660.960637zM576.268746 277.625018l0-63.889099 127.778198 0 0 63.889099 63.889099 0 0 63.889099L512.379647 341.514117l0-63.889099L576.268746 277.625018zM576.268746 533.182438l0 127.778198-63.889099 0L512.379647 533.182438 384.601448 533.182438l0-63.889099 127.778198 0 0 63.889099L576.268746 533.182438zM192.934151 405.40424 192.934151 213.735919l63.889099 0 0 191.667298L192.934151 405.403217zM384.601448 788.738835 384.601448 660.960637l63.889099 0 0 127.778198L384.601448 788.738835zM576.268746 788.738835l0-63.889099 127.778198 0 0 63.889099L576.268746 788.738835zM704.046944 660.960637 704.046944 533.182438l-63.889099 0 0-63.889099 127.778198 0 0 191.667298L704.046944 660.960637zM895.715265 660.960637 895.715265 469.293339l63.889099 0L959.604364 341.515141l-63.889099 0 0-63.889099-63.889099 0 0-63.889099-63.889099 0 0-63.889099-63.889099 0L704.047967 85.957721 576.268746 85.957721l0 63.889099-63.889099 0 0 63.889099-63.889099 0 0 63.889099-63.889099 0L384.601448 85.957721 65.155952 85.957721l0 447.223694L256.82325 533.181415l0 63.889099L65.155952 597.070514l0 127.778198L256.82325 724.848713l0 63.889099L65.155952 788.737812 65.155952 916.517033l894.448412 0L959.604364 788.738835 831.826166 788.738835 831.826166 660.960637 895.715265 660.960637zM576.268746 277.625018l0-63.889099 127.778198 0 0 63.889099 63.889099 0 0 63.889099L512.379647 341.514117l0-63.889099L576.268746 277.625018zM576.268746 533.182438l0 127.778198-63.889099 0L512.379647 533.182438 384.601448 533.182438l0-63.889099 127.778198 0 0 63.889099L576.268746 533.182438zM192.934151 405.40424 192.934151 213.735919l63.889099 0 0 191.667298L192.934151 405.403217zM384.601448 788.738835 384.601448 660.960637l63.889099 0 0 127.778198L384.601448 788.738835zM576.268746 788.738835l0-63.889099 127.778198 0 0 63.889099L576.268746 788.738835zM704.046944 660.960637 704.046944 533.182438l-63.889099 0 0-63.889099 127.778198 0 0 191.667298L704.046944 660.960637z" p-id="2612" fill="#8a8a8a"></path></svg>