<?xml version="1.0" standalone="no"?><!DOCTYPE svg PUBLIC "-//W3C//DTD SVG 1.1//EN" "http://www.w3.org/Graphics/SVG/1.1/DTD/svg11.dtd"><svg t="1570674448965" class="icon" viewBox="0 0 1024 1024" version="1.1" xmlns="http://www.w3.org/2000/svg" p-id="3984" width="32" height="32" xmlns:xlink="http://www.w3.org/1999/xlink"><defs><style type="text/css"></style></defs><path d="M972.8 188.16H51.2a40.32 40.32 0 0 1-40.32-40.32 40.32 40.32 0 0 1 40.32-40.32h921.6a40.32 40.32 0 0 1 40.32 40.32 40.32 40.32 0 0 1-40.32 40.32zM972.8 531.2H358.4a33.28 33.28 0 0 1 0-64h614.4a33.28 33.28 0 1 1 0 64zM972.8 888.32H51.2a40.32 40.32 0 0 1-40.32-40.32 40.32 40.32 0 0 1 40.32-40.32h921.6a40.32 40.32 0 0 1 40.32 40.32 40.32 40.32 0 0 1-40.32 40.32zM51.2 673.28a32.64 32.64 0 0 1-23.68-9.6 32.64 32.64 0 0 1 0-46.08L128 517.12 27.52 417.28a32.64 32.64 0 0 1 0-46.08 32 32 0 0 1 46.72 0l122.88 122.88a33.28 33.28 0 0 1 0 46.72l-122.88 122.88a32.64 32.64 0 0 1-23.04 9.6z" fill="#2c2c2c" p-id="3985"></path></svg>