<?xml version="1.0" standalone="no"?><!DOCTYPE svg PUBLIC "-//W3C//DTD SVG 1.1//EN" "http://www.w3.org/Graphics/SVG/1.1/DTD/svg11.dtd"><svg t="1569721836799" class="icon" viewBox="0 0 1024 1024" version="1.1" xmlns="http://www.w3.org/2000/svg" p-id="2639" xmlns:xlink="http://www.w3.org/1999/xlink" width="32" height="32"><defs><style type="text/css"></style></defs><path d="M736 0l-448 0c-52.8 0-96 43.2-96 96l0 832c0 52.8 43.2 96 96 96l448 0c52.8 0 96-43.2 96-96l0-832c0-52.8-43.2-96-96-96zM384 48l256 0 0 32-256 0 0-32zM512 960c-35.346 0-64-28.654-64-64s28.654-64 64-64 64 28.654 64 64-28.654 64-64 64zM768 768l-512 0 0-640 512 0 0 640z" p-id="2640"></path></svg>