<?xml version="1.0" standalone="no"?><!DOCTYPE svg PUBLIC "-//W3C//DTD SVG 1.1//EN" "http://www.w3.org/Graphics/SVG/1.1/DTD/svg11.dtd"><svg t="1570786153661" class="icon" viewBox="0 0 1024 1024" version="1.1" xmlns="http://www.w3.org/2000/svg" p-id="2569" width="48" height="48" xmlns:xlink="http://www.w3.org/1999/xlink"><defs><style type="text/css"></style></defs><path d="M173.798836 172.464957c144.632051-142.899594 379.119597-142.899594 523.752672 0 133.539412 131.934868 143.673214 339.497181 30.632671 483.034295l59.131749 58.449203c9.682523-3.296069 20.016893-1.806135 26.800389 4.927219l137.847531 136.183635c10.132778 10.021238 8.610098 27.819602-3.435239 39.702234l-54.56678 53.915957c-12.051477 11.911284-30.03813 13.430894-40.202631 3.40454L715.910645 815.926034c-6.78452-6.727215-8.3072-16.949021-4.958942-26.523073l-60.756759-59.972906c-144.621818 101.81078-346.647021 88.691995-476.402247-39.498596C29.177018 547.041074 29.177018 315.354318 173.798836 172.464957L173.798836 172.464957zM250.181481 614.470813c102.446253 101.221356 268.555455 101.221356 370.986359 0 102.456487-101.215216 102.456487-265.315668 0-366.55135-102.440114-101.216239-268.540106-101.199866-370.986359 0C147.741367 349.139795 147.741367 513.255597 250.181481 614.470813L250.181481 614.470813zM571.01458 291.698548c7.980765 7.877411 7.980765 20.609387 0 28.486798-7.956206 7.860015-20.845771 7.869225-28.826536 0l0.026606-0.026606c-61.138452-60.154032-159.832242-60.154032-220.924645 0.026606-7.945973 7.860015-20.871353 7.860015-28.817326 0-7.955182-7.868201-7.941879-20.609387 0-28.465309C369.406886 215.71704 494.071164 215.71704 571.01458 291.698548L571.01458 291.698548z" p-id="2570" fill="#ffffff"></path></svg>